<svg xmlns="http://www.w3.org/2000/svg" xmlns:xlink="http://www.w3.org/1999/xlink"><symbol id="icon-close" viewBox="0 0 24 24"><g fill="none">
<path fill-rule="evenodd" clip-rule="evenodd" d="M18.7071 5.29289C19.0976 5.68342 19.0976 6.31658 18.7071 6.70711L6.70711 18.7071C6.31658 19.0976 5.68342 19.0976 5.29289 18.7071C4.90237 18.3166 4.90237 17.6834 5.29289 17.2929L17.2929 5.29289C17.6834 4.90237 18.3166 4.90237 18.7071 5.29289Z" fill="currentColor"/>
<path fill-rule="evenodd" clip-rule="evenodd" d="M5.29289 5.29289C5.68342 4.90237 6.31658 4.90237 6.70711 5.29289L18.7071 17.2929C19.0976 17.6834 19.0976 18.3166 18.7071 18.7071C18.3166 19.0976 17.6834 19.0976 17.2929 18.7071L5.29289 6.70711C4.90237 6.31658 4.90237 5.68342 5.29289 5.29289Z" fill="currentColor"/>
</g></symbol><symbol id="icon-down-right-arrow" viewBox="0 0 20 24"><g fill="none">
<path d="M8.71944 20.8006H17.4177L15.229 22.9891C15.1735 23.044 15.1293 23.1093 15.0991 23.1813C15.0689 23.2533 15.0532 23.3305 15.053 23.4086C15.0527 23.4867 15.0679 23.564 15.0977 23.6362C15.1275 23.7084 15.1712 23.7739 15.2264 23.8291C15.2816 23.8843 15.3472 23.9281 15.4194 23.9578C15.4915 23.9876 15.5689 24.0028 15.6469 24.0026C15.725 24.0023 15.8023 23.9866 15.8742 23.9564C15.9462 23.9262 16.0115 23.8821 16.0664 23.8265L19.1491 20.7438C19.2966 20.5959 19.3794 20.3956 19.3794 20.1868C19.3794 19.978 19.2966 19.7777 19.1491 19.6298L16.0664 16.5471C16.0115 16.4916 15.9462 16.4474 15.8742 16.4172C15.8023 16.387 15.725 16.3713 15.6469 16.3711C15.5689 16.3708 15.4915 16.386 15.4194 16.4158C15.3472 16.4456 15.2816 16.4893 15.2264 16.5445C15.1712 16.5997 15.1275 16.6653 15.0977 16.7375C15.0679 16.8096 15.0527 16.887 15.053 16.965C15.0532 17.0431 15.0689 17.1204 15.0991 17.1923C15.1293 17.2643 15.1735 17.3296 15.229 17.3845L17.4392 19.5947V19.6153H8.71944C4.90738 19.6153 1.80603 16.514 1.80603 12.7019L1.80603 0.592552C1.80603 0.435387 1.7436 0.284658 1.63247 0.173525C1.52133 0.0623932 1.37061 -4.00543e-05 1.21344 -4.00543e-05C1.05627 -4.00543e-05 0.905546 0.0623932 0.794413 0.173525C0.683279 0.284658 0.620846 0.435387 0.620846 0.592552L0.620846 12.7019C0.620846 17.1675 4.25385 20.8006 8.71944 20.8006Z" fill="#B1B1B1"/>
</g></symbol><symbol id="icon-upload" viewBox="0 0 40 40"><g fill="none">
<path d="M27.2613 17.3156V9.74576C27.2613 9.52912 27.1613 9.32889 27.0196 9.17053L18.5327 0.258515C18.3742 0.0918748 18.1491 0 17.9241 0H4.46843C1.98422 0 0 2.02578 0 4.51015V29.9542C0 32.4385 1.98422 34.4311 4.46835 34.4311H15.0897C17.0986 37.7657 20.7504 39.9999 24.9103 39.9999C31.2295 39.9999 36.39 34.8645 36.39 28.5369C36.3986 23.0096 32.43 18.3911 27.2613 17.3157V17.3156ZM18.7579 2.9264L24.4518 8.92037H20.7586C19.6582 8.92037 18.7579 8.01178 18.7579 6.91139L18.7579 2.9264ZM4.46835 32.7636C2.90953 32.7636 1.6675 31.513 1.6675 29.9542V4.51015C1.6675 2.94281 2.90953 1.6675 4.46835 1.6675H17.0904V6.91123C17.0904 8.93701 18.7329 10.5878 20.7586 10.5878H25.5938V17.0987C25.3439 17.0904 25.1437 17.0654 24.927 17.0654C22.0175 17.0654 19.3414 18.1826 17.3239 19.9334H6.73616C6.27749 19.9334 5.90241 20.3085 5.90241 20.7668C5.90241 21.2256 6.27741 21.6006 6.73616 21.6006H15.7733C15.1812 22.4343 14.6893 23.2681 14.3061 24.1851H6.73608C6.27741 24.1851 5.90233 24.5602 5.90233 25.0188C5.90233 25.4772 6.27733 25.8526 6.73608 25.8526H13.764C13.5555 26.6863 13.4472 27.6117 13.4472 28.537C13.4472 30.0374 13.7389 31.5216 14.2641 32.7721H4.46835V32.7636ZM24.9188 38.3409C19.5165 38.3409 15.1229 33.9473 15.1229 28.5452C15.1229 23.1429 19.5081 18.7493 24.9188 18.7493C30.3292 18.7493 34.7143 23.1429 34.7143 28.5452C34.7143 33.9473 30.321 38.3409 24.9188 38.3409Z" fill="#0D78FF"/>
<path d="M6.73609 17.424H15.1812C15.6398 17.424 16.0149 17.0486 16.0149 16.5902C16.0149 16.1316 15.6399 15.7565 15.1812 15.7565H6.73609C6.27742 15.7565 5.90234 16.1315 5.90234 16.5902C5.90234 17.0486 6.27734 17.424 6.73609 17.424ZM25.5105 22.3925C25.3521 22.2259 25.1355 22.1258 24.902 22.1258C24.6685 22.1258 24.4518 22.2259 24.2934 22.3925L19.4079 27.6364C19.0911 27.97 19.1162 28.5034 19.4497 28.8119C19.7833 29.1287 20.3249 29.1036 20.6417 28.7704L24.0933 25.0772V34.1809C24.0933 34.6395 24.4683 35.0146 24.927 35.0146C25.3854 35.0146 25.7607 34.6396 25.7607 34.1809V25.0772L29.187 28.7704C29.3538 28.9453 29.5705 29.0372 29.7958 29.0372C29.9956 29.0372 30.1958 28.9621 30.3625 28.8119C30.6961 28.4951 30.7211 27.97 30.4043 27.6364L25.5105 22.3925Z" fill="#0D78FF"/>
</g></symbol></svg>